<mxfile host="app.diagrams.net" agent="Mozilla/5.0 (Windows NT 10.0; Win64; x64) AppleWebKit/537.36 (KHTML, like Gecko) Chrome/136.0.0.0 Safari/537.36" version="26.2.8" pages="7">
  <diagram name="ERD Diagram" id="zEoUBViswn2JpWHZujAY">
    <mxGraphModel dx="1428" dy="743" grid="1" gridSize="10" guides="1" tooltips="1" connect="1" arrows="1" fold="1" page="1" pageScale="1" pageWidth="827" pageHeight="1169" math="0" shadow="0">
      <root>
        <mxCell id="0" />
        <mxCell id="1" parent="0" />
        <mxCell id="N-9cBxWQMs_OY1WWWXki-2" value="Book" style="shape=table;startSize=30;container=1;collapsible=1;childLayout=tableLayout;fixedRows=1;rowLines=0;fontStyle=1;align=center;resizeLast=1;html=1;" parent="1" vertex="1">
          <mxGeometry x="80" y="210" width="180" height="350" as="geometry" />
        </mxCell>
        <mxCell id="N-9cBxWQMs_OY1WWWXki-3" value="" style="shape=tableRow;horizontal=0;startSize=0;swimlaneHead=0;swimlaneBody=0;fillColor=none;collapsible=0;dropTarget=0;points=[[0,0.5],[1,0.5]];portConstraint=eastwest;top=0;left=0;right=0;bottom=1;" parent="N-9cBxWQMs_OY1WWWXki-2" vertex="1">
          <mxGeometry y="30" width="180" height="30" as="geometry" />
        </mxCell>
        <mxCell id="N-9cBxWQMs_OY1WWWXki-4" value="PK" style="shape=partialRectangle;connectable=0;fillColor=none;top=0;left=0;bottom=0;right=0;fontStyle=1;overflow=hidden;whiteSpace=wrap;html=1;" parent="N-9cBxWQMs_OY1WWWXki-3" vertex="1">
          <mxGeometry width="30" height="30" as="geometry">
            <mxRectangle width="30" height="30" as="alternateBounds" />
          </mxGeometry>
        </mxCell>
        <mxCell id="N-9cBxWQMs_OY1WWWXki-5" value="Id" style="shape=partialRectangle;connectable=0;fillColor=none;top=0;left=0;bottom=0;right=0;align=left;spacingLeft=6;fontStyle=5;overflow=hidden;whiteSpace=wrap;html=1;" parent="N-9cBxWQMs_OY1WWWXki-3" vertex="1">
          <mxGeometry x="30" width="150" height="30" as="geometry">
            <mxRectangle width="150" height="30" as="alternateBounds" />
          </mxGeometry>
        </mxCell>
        <mxCell id="N-9cBxWQMs_OY1WWWXki-6" value="" style="shape=tableRow;horizontal=0;startSize=0;swimlaneHead=0;swimlaneBody=0;fillColor=none;collapsible=0;dropTarget=0;points=[[0,0.5],[1,0.5]];portConstraint=eastwest;top=0;left=0;right=0;bottom=0;" parent="N-9cBxWQMs_OY1WWWXki-2" vertex="1">
          <mxGeometry y="60" width="180" height="30" as="geometry" />
        </mxCell>
        <mxCell id="N-9cBxWQMs_OY1WWWXki-7" value="" style="shape=partialRectangle;connectable=0;fillColor=none;top=0;left=0;bottom=0;right=0;editable=1;overflow=hidden;whiteSpace=wrap;html=1;" parent="N-9cBxWQMs_OY1WWWXki-6" vertex="1">
          <mxGeometry width="30" height="30" as="geometry">
            <mxRectangle width="30" height="30" as="alternateBounds" />
          </mxGeometry>
        </mxCell>
        <mxCell id="N-9cBxWQMs_OY1WWWXki-8" value="Title" style="shape=partialRectangle;connectable=0;fillColor=none;top=0;left=0;bottom=0;right=0;align=left;spacingLeft=6;overflow=hidden;whiteSpace=wrap;html=1;" parent="N-9cBxWQMs_OY1WWWXki-6" vertex="1">
          <mxGeometry x="30" width="150" height="30" as="geometry">
            <mxRectangle width="150" height="30" as="alternateBounds" />
          </mxGeometry>
        </mxCell>
        <mxCell id="N-9cBxWQMs_OY1WWWXki-9" value="" style="shape=tableRow;horizontal=0;startSize=0;swimlaneHead=0;swimlaneBody=0;fillColor=none;collapsible=0;dropTarget=0;points=[[0,0.5],[1,0.5]];portConstraint=eastwest;top=0;left=0;right=0;bottom=0;" parent="N-9cBxWQMs_OY1WWWXki-2" vertex="1">
          <mxGeometry y="90" width="180" height="30" as="geometry" />
        </mxCell>
        <mxCell id="N-9cBxWQMs_OY1WWWXki-10" value="" style="shape=partialRectangle;connectable=0;fillColor=none;top=0;left=0;bottom=0;right=0;editable=1;overflow=hidden;whiteSpace=wrap;html=1;" parent="N-9cBxWQMs_OY1WWWXki-9" vertex="1">
          <mxGeometry width="30" height="30" as="geometry">
            <mxRectangle width="30" height="30" as="alternateBounds" />
          </mxGeometry>
        </mxCell>
        <mxCell id="N-9cBxWQMs_OY1WWWXki-11" value="Author" style="shape=partialRectangle;connectable=0;fillColor=none;top=0;left=0;bottom=0;right=0;align=left;spacingLeft=6;overflow=hidden;whiteSpace=wrap;html=1;" parent="N-9cBxWQMs_OY1WWWXki-9" vertex="1">
          <mxGeometry x="30" width="150" height="30" as="geometry">
            <mxRectangle width="150" height="30" as="alternateBounds" />
          </mxGeometry>
        </mxCell>
        <mxCell id="N-9cBxWQMs_OY1WWWXki-12" value="" style="shape=tableRow;horizontal=0;startSize=0;swimlaneHead=0;swimlaneBody=0;fillColor=none;collapsible=0;dropTarget=0;points=[[0,0.5],[1,0.5]];portConstraint=eastwest;top=0;left=0;right=0;bottom=0;" parent="N-9cBxWQMs_OY1WWWXki-2" vertex="1">
          <mxGeometry y="120" width="180" height="30" as="geometry" />
        </mxCell>
        <mxCell id="N-9cBxWQMs_OY1WWWXki-13" value="" style="shape=partialRectangle;connectable=0;fillColor=none;top=0;left=0;bottom=0;right=0;editable=1;overflow=hidden;whiteSpace=wrap;html=1;" parent="N-9cBxWQMs_OY1WWWXki-12" vertex="1">
          <mxGeometry width="30" height="30" as="geometry">
            <mxRectangle width="30" height="30" as="alternateBounds" />
          </mxGeometry>
        </mxCell>
        <mxCell id="N-9cBxWQMs_OY1WWWXki-14" value="Status" style="shape=partialRectangle;connectable=0;fillColor=none;top=0;left=0;bottom=0;right=0;align=left;spacingLeft=6;overflow=hidden;whiteSpace=wrap;html=1;" parent="N-9cBxWQMs_OY1WWWXki-12" vertex="1">
          <mxGeometry x="30" width="150" height="30" as="geometry">
            <mxRectangle width="150" height="30" as="alternateBounds" />
          </mxGeometry>
        </mxCell>
        <mxCell id="N-9cBxWQMs_OY1WWWXki-15" value="" style="shape=tableRow;horizontal=0;startSize=0;swimlaneHead=0;swimlaneBody=0;fillColor=none;collapsible=0;dropTarget=0;points=[[0,0.5],[1,0.5]];portConstraint=eastwest;top=0;left=0;right=0;bottom=0;" parent="N-9cBxWQMs_OY1WWWXki-2" vertex="1">
          <mxGeometry y="150" width="180" height="30" as="geometry" />
        </mxCell>
        <mxCell id="N-9cBxWQMs_OY1WWWXki-16" value="" style="shape=partialRectangle;connectable=0;fillColor=none;top=0;left=0;bottom=0;right=0;editable=1;overflow=hidden;whiteSpace=wrap;html=1;" parent="N-9cBxWQMs_OY1WWWXki-15" vertex="1">
          <mxGeometry width="30" height="30" as="geometry">
            <mxRectangle width="30" height="30" as="alternateBounds" />
          </mxGeometry>
        </mxCell>
        <mxCell id="N-9cBxWQMs_OY1WWWXki-17" value="CreatedDate" style="shape=partialRectangle;connectable=0;fillColor=none;top=0;left=0;bottom=0;right=0;align=left;spacingLeft=6;overflow=hidden;whiteSpace=wrap;html=1;" parent="N-9cBxWQMs_OY1WWWXki-15" vertex="1">
          <mxGeometry x="30" width="150" height="30" as="geometry">
            <mxRectangle width="150" height="30" as="alternateBounds" />
          </mxGeometry>
        </mxCell>
        <mxCell id="N-9cBxWQMs_OY1WWWXki-18" value="" style="shape=tableRow;horizontal=0;startSize=0;swimlaneHead=0;swimlaneBody=0;fillColor=none;collapsible=0;dropTarget=0;points=[[0,0.5],[1,0.5]];portConstraint=eastwest;top=0;left=0;right=0;bottom=0;" parent="N-9cBxWQMs_OY1WWWXki-2" vertex="1">
          <mxGeometry y="180" width="180" height="30" as="geometry" />
        </mxCell>
        <mxCell id="N-9cBxWQMs_OY1WWWXki-19" value="" style="shape=partialRectangle;connectable=0;fillColor=none;top=0;left=0;bottom=0;right=0;editable=1;overflow=hidden;whiteSpace=wrap;html=1;" parent="N-9cBxWQMs_OY1WWWXki-18" vertex="1">
          <mxGeometry width="30" height="30" as="geometry">
            <mxRectangle width="30" height="30" as="alternateBounds" />
          </mxGeometry>
        </mxCell>
        <mxCell id="N-9cBxWQMs_OY1WWWXki-20" value="StatusChangedDate" style="shape=partialRectangle;connectable=0;fillColor=none;top=0;left=0;bottom=0;right=0;align=left;spacingLeft=6;overflow=hidden;whiteSpace=wrap;html=1;" parent="N-9cBxWQMs_OY1WWWXki-18" vertex="1">
          <mxGeometry x="30" width="150" height="30" as="geometry">
            <mxRectangle width="150" height="30" as="alternateBounds" />
          </mxGeometry>
        </mxCell>
        <mxCell id="N-9cBxWQMs_OY1WWWXki-24" value="" style="shape=tableRow;horizontal=0;startSize=0;swimlaneHead=0;swimlaneBody=0;fillColor=none;collapsible=0;dropTarget=0;points=[[0,0.5],[1,0.5]];portConstraint=eastwest;top=0;left=0;right=0;bottom=0;" parent="N-9cBxWQMs_OY1WWWXki-2" vertex="1">
          <mxGeometry y="210" width="180" height="30" as="geometry" />
        </mxCell>
        <mxCell id="N-9cBxWQMs_OY1WWWXki-25" value="" style="shape=partialRectangle;connectable=0;fillColor=none;top=0;left=0;bottom=0;right=0;editable=1;overflow=hidden;whiteSpace=wrap;html=1;" parent="N-9cBxWQMs_OY1WWWXki-24" vertex="1">
          <mxGeometry width="30" height="30" as="geometry">
            <mxRectangle width="30" height="30" as="alternateBounds" />
          </mxGeometry>
        </mxCell>
        <mxCell id="N-9cBxWQMs_OY1WWWXki-26" value="Cost" style="shape=partialRectangle;connectable=0;fillColor=none;top=0;left=0;bottom=0;right=0;align=left;spacingLeft=6;overflow=hidden;whiteSpace=wrap;html=1;" parent="N-9cBxWQMs_OY1WWWXki-24" vertex="1">
          <mxGeometry x="30" width="150" height="30" as="geometry">
            <mxRectangle width="150" height="30" as="alternateBounds" />
          </mxGeometry>
        </mxCell>
        <mxCell id="N-9cBxWQMs_OY1WWWXki-27" value="" style="shape=tableRow;horizontal=0;startSize=0;swimlaneHead=0;swimlaneBody=0;fillColor=none;collapsible=0;dropTarget=0;points=[[0,0.5],[1,0.5]];portConstraint=eastwest;top=0;left=0;right=0;bottom=0;" parent="N-9cBxWQMs_OY1WWWXki-2" vertex="1">
          <mxGeometry y="240" width="180" height="30" as="geometry" />
        </mxCell>
        <mxCell id="N-9cBxWQMs_OY1WWWXki-28" value="" style="shape=partialRectangle;connectable=0;fillColor=none;top=0;left=0;bottom=0;right=0;editable=1;overflow=hidden;whiteSpace=wrap;html=1;" parent="N-9cBxWQMs_OY1WWWXki-27" vertex="1">
          <mxGeometry width="30" height="30" as="geometry">
            <mxRectangle width="30" height="30" as="alternateBounds" />
          </mxGeometry>
        </mxCell>
        <mxCell id="N-9cBxWQMs_OY1WWWXki-29" value="FavoriteCharacter" style="shape=partialRectangle;connectable=0;fillColor=none;top=0;left=0;bottom=0;right=0;align=left;spacingLeft=6;overflow=hidden;whiteSpace=wrap;html=1;" parent="N-9cBxWQMs_OY1WWWXki-27" vertex="1">
          <mxGeometry x="30" width="150" height="30" as="geometry">
            <mxRectangle width="150" height="30" as="alternateBounds" />
          </mxGeometry>
        </mxCell>
        <mxCell id="N-9cBxWQMs_OY1WWWXki-30" value="" style="shape=tableRow;horizontal=0;startSize=0;swimlaneHead=0;swimlaneBody=0;fillColor=none;collapsible=0;dropTarget=0;points=[[0,0.5],[1,0.5]];portConstraint=eastwest;top=0;left=0;right=0;bottom=0;" parent="N-9cBxWQMs_OY1WWWXki-2" vertex="1">
          <mxGeometry y="270" width="180" height="30" as="geometry" />
        </mxCell>
        <mxCell id="N-9cBxWQMs_OY1WWWXki-31" value="" style="shape=partialRectangle;connectable=0;fillColor=none;top=0;left=0;bottom=0;right=0;editable=1;overflow=hidden;whiteSpace=wrap;html=1;" parent="N-9cBxWQMs_OY1WWWXki-30" vertex="1">
          <mxGeometry width="30" height="30" as="geometry">
            <mxRectangle width="30" height="30" as="alternateBounds" />
          </mxGeometry>
        </mxCell>
        <mxCell id="N-9cBxWQMs_OY1WWWXki-32" value="Rating" style="shape=partialRectangle;connectable=0;fillColor=none;top=0;left=0;bottom=0;right=0;align=left;spacingLeft=6;overflow=hidden;whiteSpace=wrap;html=1;" parent="N-9cBxWQMs_OY1WWWXki-30" vertex="1">
          <mxGeometry x="30" width="150" height="30" as="geometry">
            <mxRectangle width="150" height="30" as="alternateBounds" />
          </mxGeometry>
        </mxCell>
        <mxCell id="N-9cBxWQMs_OY1WWWXki-36" value="" style="shape=tableRow;horizontal=0;startSize=0;swimlaneHead=0;swimlaneBody=0;fillColor=none;collapsible=0;dropTarget=0;points=[[0,0.5],[1,0.5]];portConstraint=eastwest;top=0;left=0;right=0;bottom=0;" parent="N-9cBxWQMs_OY1WWWXki-2" vertex="1">
          <mxGeometry y="300" width="180" height="30" as="geometry" />
        </mxCell>
        <mxCell id="N-9cBxWQMs_OY1WWWXki-37" value="" style="shape=partialRectangle;connectable=0;fillColor=none;top=0;left=0;bottom=0;right=0;editable=1;overflow=hidden;whiteSpace=wrap;html=1;" parent="N-9cBxWQMs_OY1WWWXki-36" vertex="1">
          <mxGeometry width="30" height="30" as="geometry">
            <mxRectangle width="30" height="30" as="alternateBounds" />
          </mxGeometry>
        </mxCell>
        <mxCell id="N-9cBxWQMs_OY1WWWXki-38" value="isFavorite" style="shape=partialRectangle;connectable=0;fillColor=none;top=0;left=0;bottom=0;right=0;align=left;spacingLeft=6;overflow=hidden;whiteSpace=wrap;html=1;" parent="N-9cBxWQMs_OY1WWWXki-36" vertex="1">
          <mxGeometry x="30" width="150" height="30" as="geometry">
            <mxRectangle width="150" height="30" as="alternateBounds" />
          </mxGeometry>
        </mxCell>
        <mxCell id="N-9cBxWQMs_OY1WWWXki-39" value="" style="shape=tableRow;horizontal=0;startSize=0;swimlaneHead=0;swimlaneBody=0;fillColor=none;collapsible=0;dropTarget=0;points=[[0,0.5],[1,0.5]];portConstraint=eastwest;top=0;left=0;right=0;bottom=0;" parent="N-9cBxWQMs_OY1WWWXki-2" vertex="1">
          <mxGeometry y="330" width="180" height="20" as="geometry" />
        </mxCell>
        <mxCell id="N-9cBxWQMs_OY1WWWXki-40" value="" style="shape=partialRectangle;connectable=0;fillColor=none;top=0;left=0;bottom=0;right=0;editable=1;overflow=hidden;whiteSpace=wrap;html=1;" parent="N-9cBxWQMs_OY1WWWXki-39" vertex="1">
          <mxGeometry width="30" height="20" as="geometry">
            <mxRectangle width="30" height="20" as="alternateBounds" />
          </mxGeometry>
        </mxCell>
        <mxCell id="N-9cBxWQMs_OY1WWWXki-41" value="" style="shape=partialRectangle;connectable=0;fillColor=none;top=0;left=0;bottom=0;right=0;align=left;spacingLeft=6;overflow=hidden;whiteSpace=wrap;html=1;" parent="N-9cBxWQMs_OY1WWWXki-39" vertex="1">
          <mxGeometry x="30" width="150" height="20" as="geometry">
            <mxRectangle width="150" height="20" as="alternateBounds" />
          </mxGeometry>
        </mxCell>
        <mxCell id="N-9cBxWQMs_OY1WWWXki-42" value="Quote" style="shape=table;startSize=30;container=1;collapsible=1;childLayout=tableLayout;fixedRows=1;rowLines=0;fontStyle=1;align=center;resizeLast=1;html=1;" parent="1" vertex="1">
          <mxGeometry x="480" y="300" width="180" height="150" as="geometry" />
        </mxCell>
        <mxCell id="N-9cBxWQMs_OY1WWWXki-43" value="" style="shape=tableRow;horizontal=0;startSize=0;swimlaneHead=0;swimlaneBody=0;fillColor=none;collapsible=0;dropTarget=0;points=[[0,0.5],[1,0.5]];portConstraint=eastwest;top=0;left=0;right=0;bottom=1;" parent="N-9cBxWQMs_OY1WWWXki-42" vertex="1">
          <mxGeometry y="30" width="180" height="30" as="geometry" />
        </mxCell>
        <mxCell id="N-9cBxWQMs_OY1WWWXki-44" value="PK" style="shape=partialRectangle;connectable=0;fillColor=none;top=0;left=0;bottom=0;right=0;fontStyle=1;overflow=hidden;whiteSpace=wrap;html=1;" parent="N-9cBxWQMs_OY1WWWXki-43" vertex="1">
          <mxGeometry width="30" height="30" as="geometry">
            <mxRectangle width="30" height="30" as="alternateBounds" />
          </mxGeometry>
        </mxCell>
        <mxCell id="N-9cBxWQMs_OY1WWWXki-45" value="id" style="shape=partialRectangle;connectable=0;fillColor=none;top=0;left=0;bottom=0;right=0;align=left;spacingLeft=6;fontStyle=5;overflow=hidden;whiteSpace=wrap;html=1;" parent="N-9cBxWQMs_OY1WWWXki-43" vertex="1">
          <mxGeometry x="30" width="150" height="30" as="geometry">
            <mxRectangle width="150" height="30" as="alternateBounds" />
          </mxGeometry>
        </mxCell>
        <mxCell id="N-9cBxWQMs_OY1WWWXki-46" value="" style="shape=tableRow;horizontal=0;startSize=0;swimlaneHead=0;swimlaneBody=0;fillColor=none;collapsible=0;dropTarget=0;points=[[0,0.5],[1,0.5]];portConstraint=eastwest;top=0;left=0;right=0;bottom=0;" parent="N-9cBxWQMs_OY1WWWXki-42" vertex="1">
          <mxGeometry y="60" width="180" height="30" as="geometry" />
        </mxCell>
        <mxCell id="N-9cBxWQMs_OY1WWWXki-47" value="" style="shape=partialRectangle;connectable=0;fillColor=none;top=0;left=0;bottom=0;right=0;editable=1;overflow=hidden;whiteSpace=wrap;html=1;" parent="N-9cBxWQMs_OY1WWWXki-46" vertex="1">
          <mxGeometry width="30" height="30" as="geometry">
            <mxRectangle width="30" height="30" as="alternateBounds" />
          </mxGeometry>
        </mxCell>
        <mxCell id="N-9cBxWQMs_OY1WWWXki-48" value="Content" style="shape=partialRectangle;connectable=0;fillColor=none;top=0;left=0;bottom=0;right=0;align=left;spacingLeft=6;overflow=hidden;whiteSpace=wrap;html=1;" parent="N-9cBxWQMs_OY1WWWXki-46" vertex="1">
          <mxGeometry x="30" width="150" height="30" as="geometry">
            <mxRectangle width="150" height="30" as="alternateBounds" />
          </mxGeometry>
        </mxCell>
        <mxCell id="N-9cBxWQMs_OY1WWWXki-49" value="" style="shape=tableRow;horizontal=0;startSize=0;swimlaneHead=0;swimlaneBody=0;fillColor=none;collapsible=0;dropTarget=0;points=[[0,0.5],[1,0.5]];portConstraint=eastwest;top=0;left=0;right=0;bottom=0;" parent="N-9cBxWQMs_OY1WWWXki-42" vertex="1">
          <mxGeometry y="90" width="180" height="30" as="geometry" />
        </mxCell>
        <mxCell id="N-9cBxWQMs_OY1WWWXki-50" value="" style="shape=partialRectangle;connectable=0;fillColor=none;top=0;left=0;bottom=0;right=0;editable=1;overflow=hidden;whiteSpace=wrap;html=1;" parent="N-9cBxWQMs_OY1WWWXki-49" vertex="1">
          <mxGeometry width="30" height="30" as="geometry">
            <mxRectangle width="30" height="30" as="alternateBounds" />
          </mxGeometry>
        </mxCell>
        <mxCell id="N-9cBxWQMs_OY1WWWXki-51" value="BookId" style="shape=partialRectangle;connectable=0;fillColor=none;top=0;left=0;bottom=0;right=0;align=left;spacingLeft=6;overflow=hidden;whiteSpace=wrap;html=1;" parent="N-9cBxWQMs_OY1WWWXki-49" vertex="1">
          <mxGeometry x="30" width="150" height="30" as="geometry">
            <mxRectangle width="150" height="30" as="alternateBounds" />
          </mxGeometry>
        </mxCell>
        <mxCell id="N-9cBxWQMs_OY1WWWXki-52" value="" style="shape=tableRow;horizontal=0;startSize=0;swimlaneHead=0;swimlaneBody=0;fillColor=none;collapsible=0;dropTarget=0;points=[[0,0.5],[1,0.5]];portConstraint=eastwest;top=0;left=0;right=0;bottom=0;" parent="N-9cBxWQMs_OY1WWWXki-42" vertex="1">
          <mxGeometry y="120" width="180" height="30" as="geometry" />
        </mxCell>
        <mxCell id="N-9cBxWQMs_OY1WWWXki-53" value="" style="shape=partialRectangle;connectable=0;fillColor=none;top=0;left=0;bottom=0;right=0;editable=1;overflow=hidden;whiteSpace=wrap;html=1;" parent="N-9cBxWQMs_OY1WWWXki-52" vertex="1">
          <mxGeometry width="30" height="30" as="geometry">
            <mxRectangle width="30" height="30" as="alternateBounds" />
          </mxGeometry>
        </mxCell>
        <mxCell id="N-9cBxWQMs_OY1WWWXki-54" value="isFavorite" style="shape=partialRectangle;connectable=0;fillColor=none;top=0;left=0;bottom=0;right=0;align=left;spacingLeft=6;overflow=hidden;whiteSpace=wrap;html=1;" parent="N-9cBxWQMs_OY1WWWXki-52" vertex="1">
          <mxGeometry x="30" width="150" height="30" as="geometry">
            <mxRectangle width="150" height="30" as="alternateBounds" />
          </mxGeometry>
        </mxCell>
        <mxCell id="N-9cBxWQMs_OY1WWWXki-55" value="" style="edgeStyle=orthogonalEdgeStyle;fontSize=12;html=1;endArrow=ERoneToMany;rounded=0;exitX=1;exitY=0.5;exitDx=0;exitDy=0;entryX=0;entryY=0.5;entryDx=0;entryDy=0;" parent="1" source="N-9cBxWQMs_OY1WWWXki-3" target="N-9cBxWQMs_OY1WWWXki-49" edge="1">
          <mxGeometry width="100" height="100" relative="1" as="geometry">
            <mxPoint x="360" y="430" as="sourcePoint" />
            <mxPoint x="460" y="330" as="targetPoint" />
          </mxGeometry>
        </mxCell>
      </root>
    </mxGraphModel>
  </diagram>
  <diagram id="6Ise4CbzoLvEhatR6B2Z" name="Use Case Diagram">
    <mxGraphModel dx="2596" dy="1351" grid="1" gridSize="10" guides="1" tooltips="1" connect="1" arrows="1" fold="1" page="1" pageScale="1" pageWidth="827" pageHeight="1169" math="0" shadow="0">
      <root>
        <mxCell id="0" />
        <mxCell id="1" parent="0" />
        <mxCell id="Hgp72ACG2Ey0dkF_jliL-19" value="" style="rounded=0;whiteSpace=wrap;html=1;" parent="1" vertex="1">
          <mxGeometry x="404" y="84" width="280" height="1000" as="geometry" />
        </mxCell>
        <mxCell id="D1W0CBoJ25b8oavuj5hO-1" value="User" style="shape=umlActor;verticalLabelPosition=bottom;verticalAlign=top;html=1;" parent="1" vertex="1">
          <mxGeometry x="144" y="594" width="30" height="60" as="geometry" />
        </mxCell>
        <mxCell id="D1W0CBoJ25b8oavuj5hO-2" value="Add book" style="ellipse;whiteSpace=wrap;html=1;" parent="1" vertex="1">
          <mxGeometry x="464" y="164" width="140" height="70" as="geometry" />
        </mxCell>
        <mxCell id="D1W0CBoJ25b8oavuj5hO-3" value="Edit book" style="ellipse;whiteSpace=wrap;html=1;" parent="1" vertex="1">
          <mxGeometry x="464" y="268" width="140" height="70" as="geometry" />
        </mxCell>
        <mxCell id="D1W0CBoJ25b8oavuj5hO-5" value="View book details" style="ellipse;whiteSpace=wrap;html=1;" parent="1" vertex="1">
          <mxGeometry x="464" y="372" width="140" height="70" as="geometry" />
        </mxCell>
        <mxCell id="D1W0CBoJ25b8oavuj5hO-6" value="Add book to favorites" style="ellipse;whiteSpace=wrap;html=1;" parent="1" vertex="1">
          <mxGeometry x="464" y="475" width="140" height="70" as="geometry" />
        </mxCell>
        <mxCell id="D1W0CBoJ25b8oavuj5hO-7" value="Add quote" style="ellipse;whiteSpace=wrap;html=1;" parent="1" vertex="1">
          <mxGeometry x="464" y="579" width="140" height="70" as="geometry" />
        </mxCell>
        <mxCell id="Hgp72ACG2Ey0dkF_jliL-1" value="" style="endArrow=none;html=1;rounded=0;exitX=0.5;exitY=0.5;exitDx=0;exitDy=0;exitPerimeter=0;entryX=0;entryY=0.5;entryDx=0;entryDy=0;" parent="1" source="D1W0CBoJ25b8oavuj5hO-1" target="D1W0CBoJ25b8oavuj5hO-2" edge="1">
          <mxGeometry relative="1" as="geometry">
            <mxPoint x="484" y="504" as="sourcePoint" />
            <mxPoint x="644" y="504" as="targetPoint" />
          </mxGeometry>
        </mxCell>
        <mxCell id="Hgp72ACG2Ey0dkF_jliL-4" value="" style="endArrow=none;html=1;rounded=0;exitX=0.5;exitY=0.5;exitDx=0;exitDy=0;exitPerimeter=0;entryX=0;entryY=0.5;entryDx=0;entryDy=0;" parent="1" source="D1W0CBoJ25b8oavuj5hO-1" target="D1W0CBoJ25b8oavuj5hO-3" edge="1">
          <mxGeometry relative="1" as="geometry">
            <mxPoint x="484" y="504" as="sourcePoint" />
            <mxPoint x="644" y="504" as="targetPoint" />
          </mxGeometry>
        </mxCell>
        <mxCell id="Hgp72ACG2Ey0dkF_jliL-7" value="" style="endArrow=none;html=1;rounded=0;exitX=0.5;exitY=0.5;exitDx=0;exitDy=0;exitPerimeter=0;entryX=0;entryY=0.5;entryDx=0;entryDy=0;" parent="1" source="D1W0CBoJ25b8oavuj5hO-1" target="D1W0CBoJ25b8oavuj5hO-5" edge="1">
          <mxGeometry relative="1" as="geometry">
            <mxPoint x="484" y="304" as="sourcePoint" />
            <mxPoint x="644" y="304" as="targetPoint" />
          </mxGeometry>
        </mxCell>
        <mxCell id="Hgp72ACG2Ey0dkF_jliL-10" value="" style="endArrow=none;html=1;rounded=0;exitX=0.5;exitY=0.5;exitDx=0;exitDy=0;exitPerimeter=0;entryX=0;entryY=0.5;entryDx=0;entryDy=0;" parent="1" source="D1W0CBoJ25b8oavuj5hO-1" target="D1W0CBoJ25b8oavuj5hO-6" edge="1">
          <mxGeometry relative="1" as="geometry">
            <mxPoint x="484" y="304" as="sourcePoint" />
            <mxPoint x="644" y="304" as="targetPoint" />
          </mxGeometry>
        </mxCell>
        <mxCell id="Hgp72ACG2Ey0dkF_jliL-13" value="" style="endArrow=none;html=1;rounded=0;exitX=0.5;exitY=0.5;exitDx=0;exitDy=0;exitPerimeter=0;entryX=0;entryY=0.5;entryDx=0;entryDy=0;" parent="1" source="D1W0CBoJ25b8oavuj5hO-1" target="D1W0CBoJ25b8oavuj5hO-7" edge="1">
          <mxGeometry relative="1" as="geometry">
            <mxPoint x="484" y="304" as="sourcePoint" />
            <mxPoint x="644" y="304" as="targetPoint" />
          </mxGeometry>
        </mxCell>
        <mxCell id="Hgp72ACG2Ey0dkF_jliL-20" value="Application" style="text;html=1;align=center;verticalAlign=middle;whiteSpace=wrap;rounded=0;" parent="1" vertex="1">
          <mxGeometry x="504" y="104" width="60" height="30" as="geometry" />
        </mxCell>
        <mxCell id="Hgp72ACG2Ey0dkF_jliL-21" value="Edit quote" style="ellipse;whiteSpace=wrap;html=1;" parent="1" vertex="1">
          <mxGeometry x="464" y="683" width="140" height="70" as="geometry" />
        </mxCell>
        <mxCell id="Hgp72ACG2Ey0dkF_jliL-22" value="Delete quote" style="ellipse;whiteSpace=wrap;html=1;" parent="1" vertex="1">
          <mxGeometry x="464" y="787" width="140" height="70" as="geometry" />
        </mxCell>
        <mxCell id="Hgp72ACG2Ey0dkF_jliL-23" value="Delete book" style="ellipse;whiteSpace=wrap;html=1;" parent="1" vertex="1">
          <mxGeometry x="464" y="890" width="140" height="70" as="geometry" />
        </mxCell>
        <mxCell id="Hgp72ACG2Ey0dkF_jliL-24" value="" style="endArrow=none;html=1;rounded=0;exitX=0.5;exitY=0.5;exitDx=0;exitDy=0;exitPerimeter=0;entryX=0;entryY=0.5;entryDx=0;entryDy=0;" parent="1" source="D1W0CBoJ25b8oavuj5hO-1" target="Hgp72ACG2Ey0dkF_jliL-21" edge="1">
          <mxGeometry relative="1" as="geometry">
            <mxPoint x="434" y="554" as="sourcePoint" />
            <mxPoint x="594" y="554" as="targetPoint" />
          </mxGeometry>
        </mxCell>
        <mxCell id="Hgp72ACG2Ey0dkF_jliL-27" value="" style="endArrow=none;html=1;rounded=0;exitX=0.5;exitY=0.5;exitDx=0;exitDy=0;exitPerimeter=0;entryX=0;entryY=0.5;entryDx=0;entryDy=0;" parent="1" source="D1W0CBoJ25b8oavuj5hO-1" target="Hgp72ACG2Ey0dkF_jliL-22" edge="1">
          <mxGeometry relative="1" as="geometry">
            <mxPoint x="434" y="554" as="sourcePoint" />
            <mxPoint x="594" y="554" as="targetPoint" />
          </mxGeometry>
        </mxCell>
        <mxCell id="Hgp72ACG2Ey0dkF_jliL-30" value="" style="endArrow=none;html=1;rounded=0;exitX=0.5;exitY=0.5;exitDx=0;exitDy=0;exitPerimeter=0;entryX=0;entryY=0.5;entryDx=0;entryDy=0;" parent="1" source="D1W0CBoJ25b8oavuj5hO-1" target="Hgp72ACG2Ey0dkF_jliL-23" edge="1">
          <mxGeometry relative="1" as="geometry">
            <mxPoint x="434" y="554" as="sourcePoint" />
            <mxPoint x="594" y="554" as="targetPoint" />
          </mxGeometry>
        </mxCell>
        <mxCell id="Hgp72ACG2Ey0dkF_jliL-34" value="&amp;lt;&amp;lt;include&amp;gt;&amp;gt;" style="endArrow=open;endSize=12;dashed=1;html=1;rounded=0;exitX=0.5;exitY=0;exitDx=0;exitDy=0;entryX=0.5;entryY=1;entryDx=0;entryDy=0;" parent="1" source="Hgp72ACG2Ey0dkF_jliL-23" target="Hgp72ACG2Ey0dkF_jliL-22" edge="1">
          <mxGeometry width="160" relative="1" as="geometry">
            <mxPoint x="264" y="554" as="sourcePoint" />
            <mxPoint x="424" y="554" as="targetPoint" />
          </mxGeometry>
        </mxCell>
        <mxCell id="Hgp72ACG2Ey0dkF_jliL-35" value="Remove book from favorites" style="ellipse;whiteSpace=wrap;html=1;" parent="1" vertex="1">
          <mxGeometry x="464" y="994" width="140" height="70" as="geometry" />
        </mxCell>
        <mxCell id="Hgp72ACG2Ey0dkF_jliL-36" value="" style="endArrow=none;html=1;rounded=0;exitX=0.5;exitY=0.5;exitDx=0;exitDy=0;exitPerimeter=0;entryX=0;entryY=0.5;entryDx=0;entryDy=0;" parent="1" source="D1W0CBoJ25b8oavuj5hO-1" target="Hgp72ACG2Ey0dkF_jliL-35" edge="1">
          <mxGeometry relative="1" as="geometry">
            <mxPoint x="264" y="674" as="sourcePoint" />
            <mxPoint x="424" y="674" as="targetPoint" />
          </mxGeometry>
        </mxCell>
      </root>
    </mxGraphModel>
  </diagram>
  <diagram id="vO8JDbQ9h_SGYrkNwEOq" name="Add Book Activity Diagram">
    <mxGraphModel dx="1428" dy="743" grid="1" gridSize="10" guides="1" tooltips="1" connect="1" arrows="1" fold="1" page="1" pageScale="1" pageWidth="583" pageHeight="827" math="0" shadow="0">
      <root>
        <mxCell id="0" />
        <mxCell id="1" parent="0" />
        <mxCell id="s6mCzLYgkagdUd1JZhdO-1" value="" style="ellipse;html=1;shape=startState;fillColor=#000000;strokeColor=#ff0000;" parent="1" vertex="1">
          <mxGeometry x="247" y="33" width="30" height="30" as="geometry" />
        </mxCell>
        <mxCell id="s6mCzLYgkagdUd1JZhdO-2" value="" style="edgeStyle=orthogonalEdgeStyle;html=1;verticalAlign=bottom;endArrow=open;endSize=8;strokeColor=#ff0000;rounded=0;entryX=0.5;entryY=0;entryDx=0;entryDy=0;exitX=0.505;exitY=0.867;exitDx=0;exitDy=0;exitPerimeter=0;curved=1;" parent="1" source="s6mCzLYgkagdUd1JZhdO-1" target="s6mCzLYgkagdUd1JZhdO-3" edge="1">
          <mxGeometry relative="1" as="geometry">
            <mxPoint x="296" y="133" as="targetPoint" />
          </mxGeometry>
        </mxCell>
        <mxCell id="s6mCzLYgkagdUd1JZhdO-3" value="Press &quot;All Books&quot; Button" style="rounded=1;whiteSpace=wrap;html=1;" parent="1" vertex="1">
          <mxGeometry x="236" y="123" width="120" height="60" as="geometry" />
        </mxCell>
        <mxCell id="s6mCzLYgkagdUd1JZhdO-4" value="Application enters in BooksActivity" style="shape=note2;boundedLbl=1;whiteSpace=wrap;html=1;size=25;verticalAlign=top;align=center;" parent="1" vertex="1">
          <mxGeometry x="57" y="123" width="120" height="60" as="geometry" />
        </mxCell>
        <mxCell id="s6mCzLYgkagdUd1JZhdO-5" value="" style="endArrow=none;dashed=1;html=1;rounded=0;exitX=0.998;exitY=0.505;exitDx=0;exitDy=0;exitPerimeter=0;entryX=0;entryY=0.5;entryDx=0;entryDy=0;" parent="1" source="s6mCzLYgkagdUd1JZhdO-4" target="s6mCzLYgkagdUd1JZhdO-3" edge="1">
          <mxGeometry width="50" height="50" relative="1" as="geometry">
            <mxPoint x="287" y="223" as="sourcePoint" />
            <mxPoint x="337" y="173" as="targetPoint" />
          </mxGeometry>
        </mxCell>
        <mxCell id="s6mCzLYgkagdUd1JZhdO-6" value="Press &quot;Add new book&quot;&amp;nbsp;Button" style="rounded=1;whiteSpace=wrap;html=1;" parent="1" vertex="1">
          <mxGeometry x="236" y="227" width="120" height="60" as="geometry" />
        </mxCell>
        <mxCell id="s6mCzLYgkagdUd1JZhdO-7" value="" style="endArrow=classic;html=1;rounded=0;exitX=0.5;exitY=1;exitDx=0;exitDy=0;entryX=0.5;entryY=0;entryDx=0;entryDy=0;" parent="1" source="s6mCzLYgkagdUd1JZhdO-3" target="s6mCzLYgkagdUd1JZhdO-6" edge="1">
          <mxGeometry width="50" height="50" relative="1" as="geometry">
            <mxPoint x="287" y="283" as="sourcePoint" />
            <mxPoint x="337" y="233" as="targetPoint" />
          </mxGeometry>
        </mxCell>
        <mxCell id="s6mCzLYgkagdUd1JZhdO-8" value="Open BookInput Dialog" style="shape=note2;boundedLbl=1;whiteSpace=wrap;html=1;size=25;verticalAlign=top;align=center;" parent="1" vertex="1">
          <mxGeometry x="57" y="227" width="120" height="60" as="geometry" />
        </mxCell>
        <mxCell id="s6mCzLYgkagdUd1JZhdO-9" value="" style="endArrow=none;dashed=1;html=1;rounded=0;exitX=0.998;exitY=0.496;exitDx=0;exitDy=0;exitPerimeter=0;entryX=0;entryY=0.5;entryDx=0;entryDy=0;" parent="1" source="s6mCzLYgkagdUd1JZhdO-8" target="s6mCzLYgkagdUd1JZhdO-6" edge="1">
          <mxGeometry width="50" height="50" relative="1" as="geometry">
            <mxPoint x="287" y="283" as="sourcePoint" />
            <mxPoint x="337" y="233" as="targetPoint" />
          </mxGeometry>
        </mxCell>
        <mxCell id="s6mCzLYgkagdUd1JZhdO-10" value="" style="endArrow=classic;html=1;rounded=0;exitX=0.5;exitY=1;exitDx=0;exitDy=0;" parent="1" source="s6mCzLYgkagdUd1JZhdO-6" target="s6mCzLYgkagdUd1JZhdO-11" edge="1">
          <mxGeometry width="50" height="50" relative="1" as="geometry">
            <mxPoint x="287" y="333" as="sourcePoint" />
            <mxPoint x="296" y="363" as="targetPoint" />
          </mxGeometry>
        </mxCell>
        <mxCell id="s6mCzLYgkagdUd1JZhdO-11" value="Enter Book Data" style="rounded=1;whiteSpace=wrap;html=1;" parent="1" vertex="1">
          <mxGeometry x="236" y="331" width="120" height="60" as="geometry" />
        </mxCell>
        <mxCell id="s6mCzLYgkagdUd1JZhdO-12" value="" style="endArrow=classic;html=1;rounded=0;exitX=0.5;exitY=1;exitDx=0;exitDy=0;entryX=0.5;entryY=0;entryDx=0;entryDy=0;" parent="1" source="s6mCzLYgkagdUd1JZhdO-11" target="s6mCzLYgkagdUd1JZhdO-18" edge="1">
          <mxGeometry width="50" height="50" relative="1" as="geometry">
            <mxPoint x="287" y="513" as="sourcePoint" />
            <mxPoint x="297" y="443" as="targetPoint" />
          </mxGeometry>
        </mxCell>
        <mxCell id="s6mCzLYgkagdUd1JZhdO-13" value="Enterd valid data" style="rhombus;whiteSpace=wrap;html=1;" parent="1" vertex="1">
          <mxGeometry x="250.5" y="525" width="91" height="90" as="geometry" />
        </mxCell>
        <mxCell id="s6mCzLYgkagdUd1JZhdO-14" value="" style="endArrow=classic;html=1;rounded=0;exitX=1;exitY=0.5;exitDx=0;exitDy=0;" parent="1" source="s6mCzLYgkagdUd1JZhdO-13" target="s6mCzLYgkagdUd1JZhdO-15" edge="1">
          <mxGeometry width="50" height="50" relative="1" as="geometry">
            <mxPoint x="287" y="563" as="sourcePoint" />
            <mxPoint x="417" y="498" as="targetPoint" />
          </mxGeometry>
        </mxCell>
        <mxCell id="s6mCzLYgkagdUd1JZhdO-15" value="Display error message" style="rounded=1;whiteSpace=wrap;html=1;" parent="1" vertex="1">
          <mxGeometry x="417" y="540" width="120" height="60" as="geometry" />
        </mxCell>
        <mxCell id="s6mCzLYgkagdUd1JZhdO-17" value="" style="endArrow=classic;html=1;rounded=0;entryX=1;entryY=0.5;entryDx=0;entryDy=0;exitX=0.5;exitY=0;exitDx=0;exitDy=0;edgeStyle=orthogonalEdgeStyle;" parent="1" source="s6mCzLYgkagdUd1JZhdO-15" target="s6mCzLYgkagdUd1JZhdO-11" edge="1">
          <mxGeometry width="50" height="50" relative="1" as="geometry">
            <mxPoint x="287" y="563" as="sourcePoint" />
            <mxPoint x="337" y="513" as="targetPoint" />
          </mxGeometry>
        </mxCell>
        <mxCell id="s6mCzLYgkagdUd1JZhdO-18" value="Press &quot;Add&quot; Button" style="rounded=1;whiteSpace=wrap;html=1;" parent="1" vertex="1">
          <mxGeometry x="236" y="436" width="120" height="60" as="geometry" />
        </mxCell>
        <mxCell id="s6mCzLYgkagdUd1JZhdO-19" value="" style="endArrow=classic;html=1;rounded=0;exitX=0.5;exitY=1;exitDx=0;exitDy=0;entryX=0.5;entryY=0;entryDx=0;entryDy=0;" parent="1" source="s6mCzLYgkagdUd1JZhdO-18" target="s6mCzLYgkagdUd1JZhdO-13" edge="1">
          <mxGeometry width="50" height="50" relative="1" as="geometry">
            <mxPoint x="287" y="563" as="sourcePoint" />
            <mxPoint x="337" y="513" as="targetPoint" />
          </mxGeometry>
        </mxCell>
        <mxCell id="s6mCzLYgkagdUd1JZhdO-20" value="No" style="text;html=1;align=center;verticalAlign=middle;whiteSpace=wrap;rounded=0;" parent="1" vertex="1">
          <mxGeometry x="356" y="553" width="40" height="10" as="geometry" />
        </mxCell>
        <mxCell id="s6mCzLYgkagdUd1JZhdO-22" value="Store book in DataBase" style="rounded=1;whiteSpace=wrap;html=1;" parent="1" vertex="1">
          <mxGeometry x="236" y="644" width="120" height="60" as="geometry" />
        </mxCell>
        <mxCell id="s6mCzLYgkagdUd1JZhdO-23" value="" style="endArrow=classic;html=1;rounded=0;exitX=0.5;exitY=1;exitDx=0;exitDy=0;" parent="1" source="s6mCzLYgkagdUd1JZhdO-13" target="s6mCzLYgkagdUd1JZhdO-22" edge="1">
          <mxGeometry width="50" height="50" relative="1" as="geometry">
            <mxPoint x="237" y="653" as="sourcePoint" />
            <mxPoint x="287" y="603" as="targetPoint" />
          </mxGeometry>
        </mxCell>
        <mxCell id="s6mCzLYgkagdUd1JZhdO-24" value="Yes" style="text;html=1;align=center;verticalAlign=middle;whiteSpace=wrap;rounded=0;" parent="1" vertex="1">
          <mxGeometry x="285" y="623" width="51" height="20" as="geometry" />
        </mxCell>
        <mxCell id="s6mCzLYgkagdUd1JZhdO-25" value="" style="ellipse;html=1;shape=endState;fillColor=#000000;strokeColor=#ff0000;" parent="1" vertex="1">
          <mxGeometry x="281" y="763" width="30" height="30" as="geometry" />
        </mxCell>
        <mxCell id="s6mCzLYgkagdUd1JZhdO-26" value="" style="endArrow=classic;html=1;rounded=0;exitX=0.5;exitY=1;exitDx=0;exitDy=0;entryX=0.5;entryY=0;entryDx=0;entryDy=0;" parent="1" source="s6mCzLYgkagdUd1JZhdO-22" target="s6mCzLYgkagdUd1JZhdO-25" edge="1">
          <mxGeometry width="50" height="50" relative="1" as="geometry">
            <mxPoint x="237" y="653" as="sourcePoint" />
            <mxPoint x="287" y="603" as="targetPoint" />
          </mxGeometry>
        </mxCell>
      </root>
    </mxGraphModel>
  </diagram>
  <diagram id="N8yqPz5qTeiUa9zUif4W" name="Add quote Activity Diagram">
    <mxGraphModel dx="1428" dy="743" grid="1" gridSize="10" guides="1" tooltips="1" connect="1" arrows="1" fold="1" page="1" pageScale="1" pageWidth="827" pageHeight="1169" math="0" shadow="0">
      <root>
        <mxCell id="0" />
        <mxCell id="1" parent="0" />
        <mxCell id="2m4r1owV1ceFR7E8m3KS-1" value="" style="ellipse;html=1;shape=startState;fillColor=#000000;strokeColor=#ff0000;" parent="1" vertex="1">
          <mxGeometry x="392" y="127" width="30" height="30" as="geometry" />
        </mxCell>
        <mxCell id="2m4r1owV1ceFR7E8m3KS-2" value="" style="edgeStyle=orthogonalEdgeStyle;html=1;verticalAlign=bottom;endArrow=open;endSize=8;strokeColor=#ff0000;rounded=0;exitX=0.488;exitY=0.887;exitDx=0;exitDy=0;exitPerimeter=0;curved=1;" parent="1" source="2m4r1owV1ceFR7E8m3KS-1" edge="1">
          <mxGeometry relative="1" as="geometry">
            <mxPoint x="418" y="201" as="targetPoint" />
            <mxPoint x="407" y="141" as="sourcePoint" />
          </mxGeometry>
        </mxCell>
        <mxCell id="6B6sPHs861VA9lOaw4-c-1" value="Press &quot;All Books&quot; Button" style="rounded=1;whiteSpace=wrap;html=1;flipH=0;" parent="1" vertex="1">
          <mxGeometry x="357" y="201" width="120" height="60" as="geometry" />
        </mxCell>
        <mxCell id="6B6sPHs861VA9lOaw4-c-2" value="Application enters in BooksActivity" style="shape=note2;boundedLbl=1;whiteSpace=wrap;html=1;size=25;verticalAlign=top;align=center;flipH=0;" parent="1" vertex="1">
          <mxGeometry x="168" y="201" width="120" height="60" as="geometry" />
        </mxCell>
        <mxCell id="6B6sPHs861VA9lOaw4-c-3" value="" style="endArrow=none;dashed=1;html=1;rounded=0;exitX=0.998;exitY=0.505;exitDx=0;exitDy=0;exitPerimeter=0;entryX=0;entryY=0.5;entryDx=0;entryDy=0;" parent="1" source="6B6sPHs861VA9lOaw4-c-2" target="6B6sPHs861VA9lOaw4-c-1" edge="1">
          <mxGeometry width="50" height="50" relative="1" as="geometry">
            <mxPoint x="408" y="301" as="sourcePoint" />
            <mxPoint x="458" y="251" as="targetPoint" />
          </mxGeometry>
        </mxCell>
        <mxCell id="6B6sPHs861VA9lOaw4-c-4" value="Press Book Button" style="rounded=1;whiteSpace=wrap;html=1;" parent="1" vertex="1">
          <mxGeometry x="357" y="301" width="120" height="60" as="geometry" />
        </mxCell>
        <mxCell id="6B6sPHs861VA9lOaw4-c-5" value="" style="endArrow=classic;html=1;rounded=0;exitX=0.5;exitY=1;exitDx=0;exitDy=0;entryX=0.5;entryY=0;entryDx=0;entryDy=0;" parent="1" source="6B6sPHs861VA9lOaw4-c-1" target="6B6sPHs861VA9lOaw4-c-4" edge="1">
          <mxGeometry width="50" height="50" relative="1" as="geometry">
            <mxPoint x="408" y="361" as="sourcePoint" />
            <mxPoint x="458" y="311" as="targetPoint" />
          </mxGeometry>
        </mxCell>
        <mxCell id="6B6sPHs861VA9lOaw4-c-6" value="Application enters in BookDetailsActivity" style="shape=note2;boundedLbl=1;whiteSpace=wrap;html=1;size=25;verticalAlign=top;align=center;" parent="1" vertex="1">
          <mxGeometry x="168" y="301" width="120" height="60" as="geometry" />
        </mxCell>
        <mxCell id="6B6sPHs861VA9lOaw4-c-7" value="" style="endArrow=none;dashed=1;html=1;rounded=0;exitX=0.998;exitY=0.496;exitDx=0;exitDy=0;exitPerimeter=0;entryX=0;entryY=0.5;entryDx=0;entryDy=0;" parent="1" source="6B6sPHs861VA9lOaw4-c-6" target="6B6sPHs861VA9lOaw4-c-4" edge="1">
          <mxGeometry width="50" height="50" relative="1" as="geometry">
            <mxPoint x="408" y="361" as="sourcePoint" />
            <mxPoint x="458" y="311" as="targetPoint" />
          </mxGeometry>
        </mxCell>
        <mxCell id="l9JSTF0yIlh1ZAObYAR3-1" value="Enter Quote Data" style="rounded=1;whiteSpace=wrap;html=1;" parent="1" vertex="1">
          <mxGeometry x="357" y="599" width="120" height="60" as="geometry" />
        </mxCell>
        <mxCell id="l9JSTF0yIlh1ZAObYAR3-2" value="" style="endArrow=classic;html=1;rounded=0;exitX=0.5;exitY=1;exitDx=0;exitDy=0;entryX=0.5;entryY=0;entryDx=0;entryDy=0;" parent="1" source="l9JSTF0yIlh1ZAObYAR3-1" target="l9JSTF0yIlh1ZAObYAR3-7" edge="1">
          <mxGeometry width="50" height="50" relative="1" as="geometry">
            <mxPoint x="409.5" y="786" as="sourcePoint" />
            <mxPoint x="419.5" y="716" as="targetPoint" />
          </mxGeometry>
        </mxCell>
        <mxCell id="l9JSTF0yIlh1ZAObYAR3-3" value="Entered valid data" style="rhombus;whiteSpace=wrap;html=1;" parent="1" vertex="1">
          <mxGeometry x="371.5" y="783" width="91" height="90" as="geometry" />
        </mxCell>
        <mxCell id="l9JSTF0yIlh1ZAObYAR3-4" value="" style="endArrow=classic;html=1;rounded=0;exitX=1;exitY=0.5;exitDx=0;exitDy=0;" parent="1" source="l9JSTF0yIlh1ZAObYAR3-3" target="l9JSTF0yIlh1ZAObYAR3-5" edge="1">
          <mxGeometry width="50" height="50" relative="1" as="geometry">
            <mxPoint x="409.5" y="836" as="sourcePoint" />
            <mxPoint x="539.5" y="771" as="targetPoint" />
          </mxGeometry>
        </mxCell>
        <mxCell id="l9JSTF0yIlh1ZAObYAR3-5" value="Display error message" style="rounded=1;whiteSpace=wrap;html=1;" parent="1" vertex="1">
          <mxGeometry x="539.5" y="798" width="120" height="60" as="geometry" />
        </mxCell>
        <mxCell id="l9JSTF0yIlh1ZAObYAR3-6" value="" style="endArrow=classic;html=1;rounded=0;entryX=1;entryY=0.5;entryDx=0;entryDy=0;exitX=0.5;exitY=0;exitDx=0;exitDy=0;edgeStyle=orthogonalEdgeStyle;" parent="1" source="l9JSTF0yIlh1ZAObYAR3-5" target="l9JSTF0yIlh1ZAObYAR3-1" edge="1">
          <mxGeometry width="50" height="50" relative="1" as="geometry">
            <mxPoint x="409.5" y="836" as="sourcePoint" />
            <mxPoint x="459.5" y="786" as="targetPoint" />
          </mxGeometry>
        </mxCell>
        <mxCell id="l9JSTF0yIlh1ZAObYAR3-7" value="Press Add Button" style="rounded=1;whiteSpace=wrap;html=1;" parent="1" vertex="1">
          <mxGeometry x="357" y="699" width="120" height="60" as="geometry" />
        </mxCell>
        <mxCell id="l9JSTF0yIlh1ZAObYAR3-8" value="" style="endArrow=classic;html=1;rounded=0;exitX=0.5;exitY=1;exitDx=0;exitDy=0;entryX=0.5;entryY=0;entryDx=0;entryDy=0;" parent="1" source="l9JSTF0yIlh1ZAObYAR3-7" target="l9JSTF0yIlh1ZAObYAR3-3" edge="1">
          <mxGeometry width="50" height="50" relative="1" as="geometry">
            <mxPoint x="409.5" y="836" as="sourcePoint" />
            <mxPoint x="459.5" y="786" as="targetPoint" />
          </mxGeometry>
        </mxCell>
        <mxCell id="l9JSTF0yIlh1ZAObYAR3-9" value="No" style="text;html=1;align=center;verticalAlign=middle;whiteSpace=wrap;rounded=0;" parent="1" vertex="1">
          <mxGeometry x="477" y="817" width="40" height="10" as="geometry" />
        </mxCell>
        <mxCell id="l9JSTF0yIlh1ZAObYAR3-10" value="Store quote in DataBase" style="rounded=1;whiteSpace=wrap;html=1;" parent="1" vertex="1">
          <mxGeometry x="357" y="898" width="120" height="60" as="geometry" />
        </mxCell>
        <mxCell id="l9JSTF0yIlh1ZAObYAR3-11" value="" style="endArrow=classic;html=1;rounded=0;exitX=0.5;exitY=1;exitDx=0;exitDy=0;" parent="1" source="l9JSTF0yIlh1ZAObYAR3-3" target="l9JSTF0yIlh1ZAObYAR3-10" edge="1">
          <mxGeometry width="50" height="50" relative="1" as="geometry">
            <mxPoint x="359.5" y="926" as="sourcePoint" />
            <mxPoint x="409.5" y="876" as="targetPoint" />
          </mxGeometry>
        </mxCell>
        <mxCell id="l9JSTF0yIlh1ZAObYAR3-12" value="Yes" style="text;html=1;align=center;verticalAlign=middle;whiteSpace=wrap;rounded=0;" parent="1" vertex="1">
          <mxGeometry x="402" y="873" width="51" height="20" as="geometry" />
        </mxCell>
        <mxCell id="l9JSTF0yIlh1ZAObYAR3-13" value="" style="ellipse;html=1;shape=endState;fillColor=#000000;strokeColor=#ff0000;" parent="1" vertex="1">
          <mxGeometry x="402" y="1012" width="30" height="30" as="geometry" />
        </mxCell>
        <mxCell id="l9JSTF0yIlh1ZAObYAR3-14" value="" style="endArrow=classic;html=1;rounded=0;exitX=0.5;exitY=1;exitDx=0;exitDy=0;entryX=0.5;entryY=0;entryDx=0;entryDy=0;" parent="1" source="l9JSTF0yIlh1ZAObYAR3-10" target="l9JSTF0yIlh1ZAObYAR3-13" edge="1">
          <mxGeometry width="50" height="50" relative="1" as="geometry">
            <mxPoint x="359.5" y="926" as="sourcePoint" />
            <mxPoint x="409.5" y="876" as="targetPoint" />
          </mxGeometry>
        </mxCell>
        <mxCell id="l9JSTF0yIlh1ZAObYAR3-15" value="Press &quot;Add quote&quot; Button" style="rounded=1;whiteSpace=wrap;html=1;" parent="1" vertex="1">
          <mxGeometry x="357" y="500" width="120" height="60" as="geometry" />
        </mxCell>
        <mxCell id="l9JSTF0yIlh1ZAObYAR3-16" value="" style="endArrow=classic;html=1;rounded=0;exitX=0.5;exitY=1;exitDx=0;exitDy=0;entryX=0.5;entryY=0;entryDx=0;entryDy=0;" parent="1" source="6B6sPHs861VA9lOaw4-c-4" target="gwdyEt9NEhdtrboG-Q09-1" edge="1">
          <mxGeometry width="50" height="50" relative="1" as="geometry">
            <mxPoint x="358" y="551" as="sourcePoint" />
            <mxPoint x="421" y="417" as="targetPoint" />
          </mxGeometry>
        </mxCell>
        <mxCell id="l9JSTF0yIlh1ZAObYAR3-17" value="Open QuoteInput Dialog" style="shape=note2;boundedLbl=1;whiteSpace=wrap;html=1;size=25;verticalAlign=top;align=center;" parent="1" vertex="1">
          <mxGeometry x="168" y="500" width="120" height="60" as="geometry" />
        </mxCell>
        <mxCell id="uDJ6dRTEyI0UNkSZcnkY-2" value="" style="endArrow=none;dashed=1;html=1;rounded=0;exitX=1.003;exitY=0.495;exitDx=0;exitDy=0;exitPerimeter=0;entryX=0;entryY=0.5;entryDx=0;entryDy=0;" parent="1" source="l9JSTF0yIlh1ZAObYAR3-17" target="l9JSTF0yIlh1ZAObYAR3-15" edge="1">
          <mxGeometry width="50" height="50" relative="1" as="geometry">
            <mxPoint x="359.5" y="666" as="sourcePoint" />
            <mxPoint x="409.5" y="616" as="targetPoint" />
          </mxGeometry>
        </mxCell>
        <mxCell id="uDJ6dRTEyI0UNkSZcnkY-3" value="" style="endArrow=classic;html=1;rounded=0;exitX=0.5;exitY=1;exitDx=0;exitDy=0;" parent="1" source="l9JSTF0yIlh1ZAObYAR3-15" target="l9JSTF0yIlh1ZAObYAR3-1" edge="1">
          <mxGeometry width="50" height="50" relative="1" as="geometry">
            <mxPoint x="339.5" y="796" as="sourcePoint" />
            <mxPoint x="389.5" y="746" as="targetPoint" />
          </mxGeometry>
        </mxCell>
        <mxCell id="gwdyEt9NEhdtrboG-Q09-1" value="Press &quot;Quotes&quot; Button" style="rounded=1;whiteSpace=wrap;html=1;" parent="1" vertex="1">
          <mxGeometry x="357" y="400" width="120" height="60" as="geometry" />
        </mxCell>
        <mxCell id="gwdyEt9NEhdtrboG-Q09-2" value="" style="endArrow=classic;html=1;rounded=0;exitX=0.5;exitY=1;exitDx=0;exitDy=0;entryX=0.5;entryY=0;entryDx=0;entryDy=0;" parent="1" source="gwdyEt9NEhdtrboG-Q09-1" target="l9JSTF0yIlh1ZAObYAR3-15" edge="1">
          <mxGeometry width="50" height="50" relative="1" as="geometry">
            <mxPoint x="321" y="367" as="sourcePoint" />
            <mxPoint x="371" y="317" as="targetPoint" />
          </mxGeometry>
        </mxCell>
        <mxCell id="gwdyEt9NEhdtrboG-Q09-3" value="Application enters in QuoteActivity" style="shape=note2;boundedLbl=1;whiteSpace=wrap;html=1;size=25;verticalAlign=top;align=center;" parent="1" vertex="1">
          <mxGeometry x="168" y="400" width="120" height="60" as="geometry" />
        </mxCell>
        <mxCell id="gwdyEt9NEhdtrboG-Q09-4" value="" style="endArrow=none;dashed=1;html=1;rounded=0;exitX=0.996;exitY=0.496;exitDx=0;exitDy=0;exitPerimeter=0;entryX=0;entryY=0.5;entryDx=0;entryDy=0;" parent="1" source="gwdyEt9NEhdtrboG-Q09-3" target="gwdyEt9NEhdtrboG-Q09-1" edge="1">
          <mxGeometry width="50" height="50" relative="1" as="geometry">
            <mxPoint x="298" y="342" as="sourcePoint" />
            <mxPoint x="367" y="342" as="targetPoint" />
          </mxGeometry>
        </mxCell>
      </root>
    </mxGraphModel>
  </diagram>
  <diagram id="avYtAfsJC97o-UHAW3vs" name="Add book to Favorite Activity Diagram">
    <mxGraphModel dx="1428" dy="743" grid="1" gridSize="10" guides="1" tooltips="1" connect="1" arrows="1" fold="1" page="1" pageScale="1" pageWidth="413" pageHeight="583" math="0" shadow="0">
      <root>
        <mxCell id="0" />
        <mxCell id="1" parent="0" />
        <mxCell id="KXyrZElcbdzuKYJ8cCCG-1" value="" style="ellipse;html=1;shape=startState;fillColor=#000000;strokeColor=#ff0000;" parent="1" vertex="1">
          <mxGeometry x="276" y="32" width="30" height="30" as="geometry" />
        </mxCell>
        <mxCell id="KXyrZElcbdzuKYJ8cCCG-2" value="" style="edgeStyle=orthogonalEdgeStyle;html=1;verticalAlign=bottom;endArrow=open;endSize=8;strokeColor=#ff0000;rounded=0;exitX=0.488;exitY=0.887;exitDx=0;exitDy=0;exitPerimeter=0;curved=1;" parent="1" source="KXyrZElcbdzuKYJ8cCCG-1" edge="1">
          <mxGeometry relative="1" as="geometry">
            <mxPoint x="302" y="122" as="targetPoint" />
            <mxPoint x="291" y="62" as="sourcePoint" />
          </mxGeometry>
        </mxCell>
        <mxCell id="KXyrZElcbdzuKYJ8cCCG-3" value="Press &quot;All Books&quot; Button" style="rounded=1;whiteSpace=wrap;html=1;" parent="1" vertex="1">
          <mxGeometry x="241" y="122" width="120" height="60" as="geometry" />
        </mxCell>
        <mxCell id="KXyrZElcbdzuKYJ8cCCG-4" value="Application enters in BooksActivity" style="shape=note2;boundedLbl=1;whiteSpace=wrap;html=1;size=25;verticalAlign=top;align=center;" parent="1" vertex="1">
          <mxGeometry x="52" y="122" width="120" height="58" as="geometry" />
        </mxCell>
        <mxCell id="KXyrZElcbdzuKYJ8cCCG-5" value="" style="endArrow=none;dashed=1;html=1;rounded=0;exitX=0.998;exitY=0.505;exitDx=0;exitDy=0;exitPerimeter=0;entryX=0;entryY=0.5;entryDx=0;entryDy=0;" parent="1" source="KXyrZElcbdzuKYJ8cCCG-4" target="KXyrZElcbdzuKYJ8cCCG-3" edge="1">
          <mxGeometry width="50" height="50" relative="1" as="geometry">
            <mxPoint x="292" y="222" as="sourcePoint" />
            <mxPoint x="342" y="172" as="targetPoint" />
          </mxGeometry>
        </mxCell>
        <mxCell id="KXyrZElcbdzuKYJ8cCCG-6" value="Press Book Button" style="rounded=1;whiteSpace=wrap;html=1;" parent="1" vertex="1">
          <mxGeometry x="241" y="218" width="120" height="60" as="geometry" />
        </mxCell>
        <mxCell id="KXyrZElcbdzuKYJ8cCCG-7" value="" style="endArrow=classic;html=1;rounded=0;exitX=0.5;exitY=1;exitDx=0;exitDy=0;entryX=0.5;entryY=0;entryDx=0;entryDy=0;" parent="1" source="KXyrZElcbdzuKYJ8cCCG-3" target="KXyrZElcbdzuKYJ8cCCG-6" edge="1">
          <mxGeometry width="50" height="50" relative="1" as="geometry">
            <mxPoint x="292" y="282" as="sourcePoint" />
            <mxPoint x="342" y="232" as="targetPoint" />
          </mxGeometry>
        </mxCell>
        <mxCell id="KXyrZElcbdzuKYJ8cCCG-8" value="Application enters in BookDetailsActivity" style="shape=note2;boundedLbl=1;whiteSpace=wrap;html=1;size=25;verticalAlign=top;align=center;" parent="1" vertex="1">
          <mxGeometry x="52" y="218" width="120" height="60" as="geometry" />
        </mxCell>
        <mxCell id="KXyrZElcbdzuKYJ8cCCG-9" value="" style="endArrow=none;dashed=1;html=1;rounded=0;exitX=0.998;exitY=0.496;exitDx=0;exitDy=0;exitPerimeter=0;entryX=0;entryY=0.5;entryDx=0;entryDy=0;" parent="1" source="KXyrZElcbdzuKYJ8cCCG-8" target="KXyrZElcbdzuKYJ8cCCG-6" edge="1">
          <mxGeometry width="50" height="50" relative="1" as="geometry">
            <mxPoint x="292" y="282" as="sourcePoint" />
            <mxPoint x="342" y="232" as="targetPoint" />
          </mxGeometry>
        </mxCell>
        <mxCell id="KXyrZElcbdzuKYJ8cCCG-19" value="Udate book favorite flag in DataBase" style="rounded=1;whiteSpace=wrap;html=1;" parent="1" vertex="1">
          <mxGeometry x="241" y="411" width="120" height="60" as="geometry" />
        </mxCell>
        <mxCell id="KXyrZElcbdzuKYJ8cCCG-22" value="" style="ellipse;html=1;shape=endState;fillColor=#000000;strokeColor=#ff0000;" parent="1" vertex="1">
          <mxGeometry x="286" y="522" width="30" height="30" as="geometry" />
        </mxCell>
        <mxCell id="KXyrZElcbdzuKYJ8cCCG-23" value="" style="endArrow=classic;html=1;rounded=0;exitX=0.5;exitY=1;exitDx=0;exitDy=0;entryX=0.5;entryY=0;entryDx=0;entryDy=0;" parent="1" source="KXyrZElcbdzuKYJ8cCCG-19" target="KXyrZElcbdzuKYJ8cCCG-22" edge="1">
          <mxGeometry width="50" height="50" relative="1" as="geometry">
            <mxPoint x="242" y="732" as="sourcePoint" />
            <mxPoint x="292" y="682" as="targetPoint" />
          </mxGeometry>
        </mxCell>
        <mxCell id="KXyrZElcbdzuKYJ8cCCG-24" value="Press Add to favorite button" style="rounded=1;whiteSpace=wrap;html=1;" parent="1" vertex="1">
          <mxGeometry x="241" y="315" width="120" height="60" as="geometry" />
        </mxCell>
        <mxCell id="KXyrZElcbdzuKYJ8cCCG-25" value="" style="endArrow=classic;html=1;rounded=0;exitX=0.5;exitY=1;exitDx=0;exitDy=0;entryX=0.5;entryY=0;entryDx=0;entryDy=0;" parent="1" source="KXyrZElcbdzuKYJ8cCCG-6" target="KXyrZElcbdzuKYJ8cCCG-24" edge="1">
          <mxGeometry width="50" height="50" relative="1" as="geometry">
            <mxPoint x="242" y="472" as="sourcePoint" />
            <mxPoint x="301" y="332" as="targetPoint" />
          </mxGeometry>
        </mxCell>
        <mxCell id="KXyrZElcbdzuKYJ8cCCG-26" value="Heart image button is filled" style="shape=note2;boundedLbl=1;whiteSpace=wrap;html=1;size=25;verticalAlign=top;align=center;" parent="1" vertex="1">
          <mxGeometry x="52" y="315" width="120" height="60" as="geometry" />
        </mxCell>
        <mxCell id="KXyrZElcbdzuKYJ8cCCG-27" value="" style="endArrow=none;dashed=1;html=1;rounded=0;exitX=1.003;exitY=0.495;exitDx=0;exitDy=0;exitPerimeter=0;entryX=0;entryY=0.5;entryDx=0;entryDy=0;" parent="1" source="KXyrZElcbdzuKYJ8cCCG-26" target="KXyrZElcbdzuKYJ8cCCG-24" edge="1">
          <mxGeometry width="50" height="50" relative="1" as="geometry">
            <mxPoint x="242" y="472" as="sourcePoint" />
            <mxPoint x="292" y="422" as="targetPoint" />
          </mxGeometry>
        </mxCell>
        <mxCell id="KXyrZElcbdzuKYJ8cCCG-28" value="" style="endArrow=classic;html=1;rounded=0;exitX=0.5;exitY=1;exitDx=0;exitDy=0;entryX=0.5;entryY=0;entryDx=0;entryDy=0;" parent="1" source="KXyrZElcbdzuKYJ8cCCG-24" target="KXyrZElcbdzuKYJ8cCCG-19" edge="1">
          <mxGeometry width="50" height="50" relative="1" as="geometry">
            <mxPoint x="222" y="602" as="sourcePoint" />
            <mxPoint x="301" y="424" as="targetPoint" />
          </mxGeometry>
        </mxCell>
      </root>
    </mxGraphModel>
  </diagram>
  <diagram id="YWJkPMaItJi-Imx-a-Id" name="Delete book Activity Diagram">
    <mxGraphModel dx="1680" dy="874" grid="1" gridSize="10" guides="1" tooltips="1" connect="1" arrows="1" fold="1" page="1" pageScale="1" pageWidth="583" pageHeight="827" math="0" shadow="0">
      <root>
        <mxCell id="0" />
        <mxCell id="1" parent="0" />
        <mxCell id="97Gfa5phQHHLBgJCMIoH-1" value="" style="edgeStyle=orthogonalEdgeStyle;html=1;verticalAlign=bottom;endArrow=open;endSize=8;strokeColor=#ff0000;rounded=0;entryX=0.5;entryY=0;entryDx=0;entryDy=0;exitX=0.505;exitY=0.867;exitDx=0;exitDy=0;exitPerimeter=0;curved=1;" parent="1" target="97Gfa5phQHHLBgJCMIoH-2" edge="1">
          <mxGeometry relative="1" as="geometry">
            <mxPoint x="386" y="230" as="targetPoint" />
            <mxPoint x="352" y="156" as="sourcePoint" />
          </mxGeometry>
        </mxCell>
        <mxCell id="97Gfa5phQHHLBgJCMIoH-2" value="Press &quot;All Books&quot;&#39; Button" style="rounded=1;whiteSpace=wrap;html=1;" parent="1" vertex="1">
          <mxGeometry x="326" y="220" width="120" height="60" as="geometry" />
        </mxCell>
        <mxCell id="97Gfa5phQHHLBgJCMIoH-3" value="Application enters in BooksActivity" style="shape=note2;boundedLbl=1;whiteSpace=wrap;html=1;size=25;verticalAlign=top;align=center;" parent="1" vertex="1">
          <mxGeometry x="137" y="220" width="120" height="60" as="geometry" />
        </mxCell>
        <mxCell id="97Gfa5phQHHLBgJCMIoH-4" value="" style="endArrow=none;dashed=1;html=1;rounded=0;exitX=0.998;exitY=0.505;exitDx=0;exitDy=0;exitPerimeter=0;entryX=0;entryY=0.5;entryDx=0;entryDy=0;" parent="1" source="97Gfa5phQHHLBgJCMIoH-3" target="97Gfa5phQHHLBgJCMIoH-2" edge="1">
          <mxGeometry width="50" height="50" relative="1" as="geometry">
            <mxPoint x="377" y="320" as="sourcePoint" />
            <mxPoint x="427" y="270" as="targetPoint" />
          </mxGeometry>
        </mxCell>
        <mxCell id="97Gfa5phQHHLBgJCMIoH-5" value="Press Book Button" style="rounded=1;whiteSpace=wrap;html=1;" parent="1" vertex="1">
          <mxGeometry x="326" y="328" width="120" height="60" as="geometry" />
        </mxCell>
        <mxCell id="97Gfa5phQHHLBgJCMIoH-6" value="" style="endArrow=classic;html=1;rounded=0;exitX=0.5;exitY=1;exitDx=0;exitDy=0;entryX=0.5;entryY=0;entryDx=0;entryDy=0;" parent="1" source="97Gfa5phQHHLBgJCMIoH-2" target="97Gfa5phQHHLBgJCMIoH-5" edge="1">
          <mxGeometry width="50" height="50" relative="1" as="geometry">
            <mxPoint x="377" y="380" as="sourcePoint" />
            <mxPoint x="427" y="330" as="targetPoint" />
          </mxGeometry>
        </mxCell>
        <mxCell id="97Gfa5phQHHLBgJCMIoH-7" value="Application enters in&amp;nbsp;BookDetailsActivity" style="shape=note2;boundedLbl=1;whiteSpace=wrap;html=1;size=25;verticalAlign=top;align=center;" parent="1" vertex="1">
          <mxGeometry x="137" y="328" width="120" height="60" as="geometry" />
        </mxCell>
        <mxCell id="97Gfa5phQHHLBgJCMIoH-8" value="" style="endArrow=none;dashed=1;html=1;rounded=0;exitX=0.998;exitY=0.496;exitDx=0;exitDy=0;exitPerimeter=0;entryX=0;entryY=0.5;entryDx=0;entryDy=0;" parent="1" source="97Gfa5phQHHLBgJCMIoH-7" target="97Gfa5phQHHLBgJCMIoH-5" edge="1">
          <mxGeometry width="50" height="50" relative="1" as="geometry">
            <mxPoint x="377" y="380" as="sourcePoint" />
            <mxPoint x="427" y="330" as="targetPoint" />
          </mxGeometry>
        </mxCell>
        <mxCell id="97Gfa5phQHHLBgJCMIoH-9" value="" style="endArrow=classic;html=1;rounded=0;exitX=0.5;exitY=1;exitDx=0;exitDy=0;" parent="1" source="97Gfa5phQHHLBgJCMIoH-5" target="97Gfa5phQHHLBgJCMIoH-10" edge="1">
          <mxGeometry width="50" height="50" relative="1" as="geometry">
            <mxPoint x="377" y="430" as="sourcePoint" />
            <mxPoint x="386" y="460" as="targetPoint" />
          </mxGeometry>
        </mxCell>
        <mxCell id="97Gfa5phQHHLBgJCMIoH-10" value="Press &quot;Delete&quot; Button" style="rounded=1;whiteSpace=wrap;html=1;" parent="1" vertex="1">
          <mxGeometry x="326" y="436" width="120" height="60" as="geometry" />
        </mxCell>
        <mxCell id="97Gfa5phQHHLBgJCMIoH-19" value="Delete book from DataBase" style="rounded=1;whiteSpace=wrap;html=1;" parent="1" vertex="1">
          <mxGeometry x="326" y="674.5" width="120" height="60" as="geometry" />
        </mxCell>
        <mxCell id="97Gfa5phQHHLBgJCMIoH-22" value="" style="ellipse;html=1;shape=endState;fillColor=#000000;strokeColor=#ff0000;" parent="1" vertex="1">
          <mxGeometry x="371" y="797.5" width="30" height="30" as="geometry" />
        </mxCell>
        <mxCell id="97Gfa5phQHHLBgJCMIoH-23" value="" style="endArrow=classic;html=1;rounded=0;exitX=0.5;exitY=1;exitDx=0;exitDy=0;entryX=0.5;entryY=0;entryDx=0;entryDy=0;" parent="1" source="97Gfa5phQHHLBgJCMIoH-19" target="97Gfa5phQHHLBgJCMIoH-22" edge="1">
          <mxGeometry width="50" height="50" relative="1" as="geometry">
            <mxPoint x="327" y="880.5" as="sourcePoint" />
            <mxPoint x="377" y="830.5" as="targetPoint" />
          </mxGeometry>
        </mxCell>
        <mxCell id="do2cnt1O-sWm08PbqM0x-1" value="" style="ellipse;html=1;shape=startState;fillColor=#000000;strokeColor=#ff0000;" parent="1" vertex="1">
          <mxGeometry x="337" y="130" width="30" height="30" as="geometry" />
        </mxCell>
        <mxCell id="f7WkJymaeirihiCq_hBo-1" value="The Quotes for that book are also removed from DataBase" style="shape=note2;boundedLbl=1;whiteSpace=wrap;html=1;size=25;verticalAlign=top;align=center;" parent="1" vertex="1">
          <mxGeometry x="137" y="658" width="113" height="93" as="geometry" />
        </mxCell>
        <mxCell id="f7WkJymaeirihiCq_hBo-2" value="" style="endArrow=none;dashed=1;html=1;rounded=0;exitX=1.006;exitY=0.506;exitDx=0;exitDy=0;exitPerimeter=0;entryX=0;entryY=0.5;entryDx=0;entryDy=0;" parent="1" source="f7WkJymaeirihiCq_hBo-1" target="97Gfa5phQHHLBgJCMIoH-19" edge="1">
          <mxGeometry width="50" height="50" relative="1" as="geometry">
            <mxPoint x="267" y="498.5" as="sourcePoint" />
            <mxPoint x="336" y="498.5" as="targetPoint" />
          </mxGeometry>
        </mxCell>
        <mxCell id="TxT_sA_83T9BR2TqVSPR-5" value="Confirmation Dialog" style="rhombus;whiteSpace=wrap;html=1;" vertex="1" parent="1">
          <mxGeometry x="329" y="540" width="114" height="100" as="geometry" />
        </mxCell>
        <mxCell id="TxT_sA_83T9BR2TqVSPR-6" value="" style="endArrow=classic;html=1;rounded=0;exitX=0.5;exitY=1;exitDx=0;exitDy=0;" edge="1" parent="1" source="97Gfa5phQHHLBgJCMIoH-10" target="TxT_sA_83T9BR2TqVSPR-5">
          <mxGeometry width="50" height="50" relative="1" as="geometry">
            <mxPoint x="270" y="510" as="sourcePoint" />
            <mxPoint x="320" y="460" as="targetPoint" />
          </mxGeometry>
        </mxCell>
        <mxCell id="TxT_sA_83T9BR2TqVSPR-7" value="" style="endArrow=classic;html=1;rounded=0;exitX=0.5;exitY=1;exitDx=0;exitDy=0;" edge="1" parent="1" source="TxT_sA_83T9BR2TqVSPR-5" target="97Gfa5phQHHLBgJCMIoH-19">
          <mxGeometry width="50" height="50" relative="1" as="geometry">
            <mxPoint x="270" y="510" as="sourcePoint" />
            <mxPoint x="320" y="460" as="targetPoint" />
          </mxGeometry>
        </mxCell>
        <mxCell id="TxT_sA_83T9BR2TqVSPR-8" value="OK" style="text;html=1;align=center;verticalAlign=middle;whiteSpace=wrap;rounded=0;" vertex="1" parent="1">
          <mxGeometry x="383" y="640" width="60" height="30" as="geometry" />
        </mxCell>
        <mxCell id="TxT_sA_83T9BR2TqVSPR-9" value="" style="endArrow=classic;html=1;rounded=0;exitX=1;exitY=0.5;exitDx=0;exitDy=0;entryX=0;entryY=0.5;entryDx=0;entryDy=0;edgeStyle=orthogonalEdgeStyle;" edge="1" parent="1" source="TxT_sA_83T9BR2TqVSPR-5" target="TxT_sA_83T9BR2TqVSPR-11">
          <mxGeometry width="50" height="50" relative="1" as="geometry">
            <mxPoint x="270" y="510" as="sourcePoint" />
            <mxPoint x="320" y="460" as="targetPoint" />
            <Array as="points" />
          </mxGeometry>
        </mxCell>
        <mxCell id="TxT_sA_83T9BR2TqVSPR-10" value="CANCEL" style="text;html=1;align=center;verticalAlign=middle;whiteSpace=wrap;rounded=0;" vertex="1" parent="1">
          <mxGeometry x="450" y="560" width="60" height="30" as="geometry" />
        </mxCell>
        <mxCell id="TxT_sA_83T9BR2TqVSPR-11" value="" style="ellipse;html=1;shape=endState;fillColor=#000000;strokeColor=#ff0000;" vertex="1" parent="1">
          <mxGeometry x="540" y="575" width="30" height="30" as="geometry" />
        </mxCell>
      </root>
    </mxGraphModel>
  </diagram>
  <diagram id="qLMUvV3R2gIci7NSaVx2" name="Delete quote Activity Diagram">
    <mxGraphModel dx="1680" dy="874" grid="1" gridSize="10" guides="1" tooltips="1" connect="1" arrows="1" fold="1" page="1" pageScale="1" pageWidth="583" pageHeight="827" math="0" shadow="0">
      <root>
        <mxCell id="0" />
        <mxCell id="1" parent="0" />
        <mxCell id="voLfBWB_YBJwfv5jKHGZ-1" value="" style="ellipse;html=1;shape=startState;fillColor=#000000;strokeColor=#ff0000;" parent="1" vertex="1">
          <mxGeometry x="361" y="90" width="30" height="30" as="geometry" />
        </mxCell>
        <mxCell id="voLfBWB_YBJwfv5jKHGZ-2" value="" style="edgeStyle=orthogonalEdgeStyle;html=1;verticalAlign=bottom;endArrow=open;endSize=8;strokeColor=#ff0000;rounded=0;exitX=0.488;exitY=0.887;exitDx=0;exitDy=0;exitPerimeter=0;curved=1;" parent="1" source="voLfBWB_YBJwfv5jKHGZ-1" edge="1">
          <mxGeometry relative="1" as="geometry">
            <mxPoint x="387" y="180" as="targetPoint" />
            <mxPoint x="376" y="120" as="sourcePoint" />
          </mxGeometry>
        </mxCell>
        <mxCell id="voLfBWB_YBJwfv5jKHGZ-3" value="Press &quot;All Books&quot; Button" style="rounded=1;whiteSpace=wrap;html=1;" parent="1" vertex="1">
          <mxGeometry x="326" y="180" width="120" height="60" as="geometry" />
        </mxCell>
        <mxCell id="voLfBWB_YBJwfv5jKHGZ-4" value="Application enters in BooksActivity" style="shape=note2;boundedLbl=1;whiteSpace=wrap;html=1;size=25;verticalAlign=top;align=center;" parent="1" vertex="1">
          <mxGeometry x="137" y="180" width="120" height="60" as="geometry" />
        </mxCell>
        <mxCell id="voLfBWB_YBJwfv5jKHGZ-5" value="" style="endArrow=none;dashed=1;html=1;rounded=0;exitX=0.998;exitY=0.505;exitDx=0;exitDy=0;exitPerimeter=0;entryX=0;entryY=0.5;entryDx=0;entryDy=0;" parent="1" source="voLfBWB_YBJwfv5jKHGZ-4" target="voLfBWB_YBJwfv5jKHGZ-3" edge="1">
          <mxGeometry width="50" height="50" relative="1" as="geometry">
            <mxPoint x="377" y="280" as="sourcePoint" />
            <mxPoint x="427" y="230" as="targetPoint" />
          </mxGeometry>
        </mxCell>
        <mxCell id="voLfBWB_YBJwfv5jKHGZ-6" value="Press Book Button" style="rounded=1;whiteSpace=wrap;html=1;" parent="1" vertex="1">
          <mxGeometry x="326" y="282" width="120" height="60" as="geometry" />
        </mxCell>
        <mxCell id="voLfBWB_YBJwfv5jKHGZ-7" value="" style="endArrow=classic;html=1;rounded=0;exitX=0.5;exitY=1;exitDx=0;exitDy=0;entryX=0.5;entryY=0;entryDx=0;entryDy=0;" parent="1" source="voLfBWB_YBJwfv5jKHGZ-3" target="voLfBWB_YBJwfv5jKHGZ-6" edge="1">
          <mxGeometry width="50" height="50" relative="1" as="geometry">
            <mxPoint x="377" y="340" as="sourcePoint" />
            <mxPoint x="427" y="290" as="targetPoint" />
          </mxGeometry>
        </mxCell>
        <mxCell id="voLfBWB_YBJwfv5jKHGZ-8" value="Application enters in BookDetailsActivity" style="shape=note2;boundedLbl=1;whiteSpace=wrap;html=1;size=25;verticalAlign=top;align=center;" parent="1" vertex="1">
          <mxGeometry x="137" y="282" width="120" height="60" as="geometry" />
        </mxCell>
        <mxCell id="voLfBWB_YBJwfv5jKHGZ-9" value="" style="endArrow=none;dashed=1;html=1;rounded=0;exitX=0.998;exitY=0.496;exitDx=0;exitDy=0;exitPerimeter=0;entryX=0;entryY=0.5;entryDx=0;entryDy=0;" parent="1" source="voLfBWB_YBJwfv5jKHGZ-8" target="voLfBWB_YBJwfv5jKHGZ-6" edge="1">
          <mxGeometry width="50" height="50" relative="1" as="geometry">
            <mxPoint x="377" y="340" as="sourcePoint" />
            <mxPoint x="427" y="290" as="targetPoint" />
          </mxGeometry>
        </mxCell>
        <mxCell id="voLfBWB_YBJwfv5jKHGZ-10" value="Delete quote from DataBase" style="rounded=1;whiteSpace=wrap;html=1;" parent="1" vertex="1">
          <mxGeometry x="326" y="710" width="120" height="60" as="geometry" />
        </mxCell>
        <mxCell id="voLfBWB_YBJwfv5jKHGZ-11" value="" style="ellipse;html=1;shape=endState;fillColor=#000000;strokeColor=#ff0000;" parent="1" vertex="1">
          <mxGeometry x="371" y="827" width="30" height="30" as="geometry" />
        </mxCell>
        <mxCell id="voLfBWB_YBJwfv5jKHGZ-12" value="" style="endArrow=classic;html=1;rounded=0;exitX=0.5;exitY=1;exitDx=0;exitDy=0;entryX=0.5;entryY=0;entryDx=0;entryDy=0;" parent="1" source="voLfBWB_YBJwfv5jKHGZ-10" target="voLfBWB_YBJwfv5jKHGZ-11" edge="1">
          <mxGeometry width="50" height="50" relative="1" as="geometry">
            <mxPoint x="327" y="1037" as="sourcePoint" />
            <mxPoint x="377" y="987" as="targetPoint" />
          </mxGeometry>
        </mxCell>
        <mxCell id="voLfBWB_YBJwfv5jKHGZ-13" value="Press &quot;Delete&quot; button" style="rounded=1;whiteSpace=wrap;html=1;" parent="1" vertex="1">
          <mxGeometry x="326" y="487" width="120" height="60" as="geometry" />
        </mxCell>
        <mxCell id="voLfBWB_YBJwfv5jKHGZ-14" value="" style="endArrow=classic;html=1;rounded=0;exitX=0.5;exitY=1;exitDx=0;exitDy=0;" parent="1" source="voLfBWB_YBJwfv5jKHGZ-6" target="voLfBWB_YBJwfv5jKHGZ-18" edge="1">
          <mxGeometry width="50" height="50" relative="1" as="geometry">
            <mxPoint x="327" y="530" as="sourcePoint" />
            <mxPoint x="387" y="400" as="targetPoint" />
          </mxGeometry>
        </mxCell>
        <mxCell id="voLfBWB_YBJwfv5jKHGZ-15" value="Bin image button" style="shape=note2;boundedLbl=1;whiteSpace=wrap;html=1;size=25;verticalAlign=top;align=center;" parent="1" vertex="1">
          <mxGeometry x="137" y="487" width="120" height="60" as="geometry" />
        </mxCell>
        <mxCell id="voLfBWB_YBJwfv5jKHGZ-16" value="" style="endArrow=none;dashed=1;html=1;rounded=0;exitX=1.003;exitY=0.495;exitDx=0;exitDy=0;exitPerimeter=0;entryX=0;entryY=0.5;entryDx=0;entryDy=0;" parent="1" source="voLfBWB_YBJwfv5jKHGZ-15" target="voLfBWB_YBJwfv5jKHGZ-13" edge="1">
          <mxGeometry width="50" height="50" relative="1" as="geometry">
            <mxPoint x="327" y="657" as="sourcePoint" />
            <mxPoint x="377" y="607" as="targetPoint" />
          </mxGeometry>
        </mxCell>
        <mxCell id="voLfBWB_YBJwfv5jKHGZ-18" value="Press &quot;Quotes&quot; Button" style="rounded=1;whiteSpace=wrap;html=1;" parent="1" vertex="1">
          <mxGeometry x="326" y="385" width="120" height="60" as="geometry" />
        </mxCell>
        <mxCell id="voLfBWB_YBJwfv5jKHGZ-19" value="Application enters in QuoteActivity" style="shape=note2;boundedLbl=1;whiteSpace=wrap;html=1;size=25;verticalAlign=top;align=center;" parent="1" vertex="1">
          <mxGeometry x="137" y="385" width="120" height="60" as="geometry" />
        </mxCell>
        <mxCell id="voLfBWB_YBJwfv5jKHGZ-20" value="" style="endArrow=none;dashed=1;html=1;rounded=0;exitX=0.998;exitY=0.583;exitDx=0;exitDy=0;exitPerimeter=0;entryX=0;entryY=0.5;entryDx=0;entryDy=0;" parent="1" source="voLfBWB_YBJwfv5jKHGZ-19" edge="1">
          <mxGeometry width="50" height="50" relative="1" as="geometry">
            <mxPoint x="377" y="454" as="sourcePoint" />
            <mxPoint x="326" y="420" as="targetPoint" />
          </mxGeometry>
        </mxCell>
        <mxCell id="voLfBWB_YBJwfv5jKHGZ-21" value="" style="endArrow=classic;html=1;rounded=0;exitX=0.5;exitY=1;exitDx=0;exitDy=0;entryX=0.5;entryY=0;entryDx=0;entryDy=0;" parent="1" source="voLfBWB_YBJwfv5jKHGZ-18" target="voLfBWB_YBJwfv5jKHGZ-13" edge="1">
          <mxGeometry width="50" height="50" relative="1" as="geometry">
            <mxPoint x="317" y="460" as="sourcePoint" />
            <mxPoint x="367" y="410" as="targetPoint" />
          </mxGeometry>
        </mxCell>
        <mxCell id="F5AwulahTTgy17BNwSh5-1" value="Confirmation Dialog" style="rhombus;whiteSpace=wrap;html=1;" vertex="1" parent="1">
          <mxGeometry x="334" y="590" width="104" height="80" as="geometry" />
        </mxCell>
        <mxCell id="VuOKimdHf81CjtEtb7SQ-1" value="" style="endArrow=classic;html=1;rounded=0;exitX=0.5;exitY=1;exitDx=0;exitDy=0;entryX=0.5;entryY=0;entryDx=0;entryDy=0;" edge="1" parent="1" source="voLfBWB_YBJwfv5jKHGZ-13" target="F5AwulahTTgy17BNwSh5-1">
          <mxGeometry width="50" height="50" relative="1" as="geometry">
            <mxPoint x="160" y="670" as="sourcePoint" />
            <mxPoint x="210" y="620" as="targetPoint" />
          </mxGeometry>
        </mxCell>
        <mxCell id="VuOKimdHf81CjtEtb7SQ-2" value="" style="endArrow=classic;html=1;rounded=0;exitX=0.5;exitY=1;exitDx=0;exitDy=0;entryX=0.5;entryY=0;entryDx=0;entryDy=0;" edge="1" parent="1" source="F5AwulahTTgy17BNwSh5-1" target="voLfBWB_YBJwfv5jKHGZ-10">
          <mxGeometry width="50" height="50" relative="1" as="geometry">
            <mxPoint x="160" y="670" as="sourcePoint" />
            <mxPoint x="210" y="620" as="targetPoint" />
          </mxGeometry>
        </mxCell>
        <mxCell id="bkD8Fph2Bmf3lrPt6ru7-1" value="OK" style="text;html=1;align=center;verticalAlign=middle;whiteSpace=wrap;rounded=0;" vertex="1" parent="1">
          <mxGeometry x="386" y="670" width="60" height="30" as="geometry" />
        </mxCell>
        <mxCell id="bkD8Fph2Bmf3lrPt6ru7-2" value="" style="ellipse;html=1;shape=endState;fillColor=#000000;strokeColor=#ff0000;" vertex="1" parent="1">
          <mxGeometry x="530" y="615" width="30" height="30" as="geometry" />
        </mxCell>
        <mxCell id="bkD8Fph2Bmf3lrPt6ru7-3" value="" style="endArrow=classic;html=1;rounded=0;exitX=1;exitY=0.5;exitDx=0;exitDy=0;entryX=0;entryY=0.5;entryDx=0;entryDy=0;" edge="1" parent="1" source="F5AwulahTTgy17BNwSh5-1" target="bkD8Fph2Bmf3lrPt6ru7-2">
          <mxGeometry width="50" height="50" relative="1" as="geometry">
            <mxPoint x="370" y="690" as="sourcePoint" />
            <mxPoint x="420" y="640" as="targetPoint" />
          </mxGeometry>
        </mxCell>
        <mxCell id="vVvY2EKNR8Nkanuj5kcx-1" value="CANCEL" style="text;html=1;align=center;verticalAlign=middle;whiteSpace=wrap;rounded=0;" vertex="1" parent="1">
          <mxGeometry x="446" y="600" width="60" height="30" as="geometry" />
        </mxCell>
      </root>
    </mxGraphModel>
  </diagram>
</mxfile>
